<svg width="17" height="18" viewBox="0 0 17 18" fill="none" xmlns="http://www.w3.org/2000/svg">
<path d="M11.8125 1.625C12.5938 0.84375 13.875 0.84375 14.6562 1.625L15.875 2.84375C16.6562 3.625 16.6562 4.90625 15.875 5.6875L14.375 7.1875L10.3125 3.125L11.8125 1.625ZM13.6562 7.90625L6.375 15.1875C6.0625 15.5 5.65625 15.75 5.21875 15.875L1.4375 16.9688C1.1875 17.0625 0.90625 17 0.71875 16.7812C0.5 16.5938 0.4375 16.3125 0.5 16.0625L1.625 12.2812C1.75 11.8438 2 11.4375 2.3125 11.125L9.59375 3.84375L13.6562 7.90625Z" fill="white"/>
</svg>
